<svg width="59" height="59" viewBox="0 0 59 59" fill="none" xmlns="http://www.w3.org/2000/svg">
<circle cx="29.5" cy="29.5" r="29.5" fill="#33956D"/>
<path d="M35.439 14.6897C33.931 13.0616 31.8248 12.165 29.5 12.165C27.1629 12.165 25.0497 13.0562 23.5487 14.6742C22.0315 16.31 21.2922 18.5332 21.4658 20.9339C21.8098 25.6702 25.414 29.523 29.5 29.523C33.5861 29.523 37.184 25.6709 37.5335 20.9355C37.7094 18.5565 36.9655 16.3379 35.439 14.6897Z" fill="white"/>
<path d="M43.1384 46.8808H15.8616C15.5046 46.8855 15.151 46.8105 14.8266 46.6613C14.5022 46.5121 14.2152 46.2924 13.9863 46.0183C13.4827 45.4162 13.2796 44.5941 13.43 43.7626C14.084 40.1345 16.1251 37.0867 19.3332 34.9472C22.1833 33.0479 25.7936 32.0026 29.5 32.0026C33.2064 32.0026 36.8167 33.0487 39.6668 34.9472C42.875 37.086 44.9161 40.1337 45.5701 43.7618C45.7204 44.5933 45.5174 45.4155 45.0137 46.0176C44.785 46.2918 44.4979 46.5116 44.1735 46.6609C43.8491 46.8102 43.4955 46.8854 43.1384 46.8808Z" fill="white"/>
</svg>
