<svg width="35" height="35" viewBox="0 0 35 35" fill="none" xmlns="http://www.w3.org/2000/svg">
<mask id="mask0_170_1276" style="mask-type:alpha" maskUnits="userSpaceOnUse" x="0" y="0" width="35" height="35">
<circle cx="17.5" cy="17.5" r="17.5" fill="#33956D"/>
</mask>
<g mask="url(#mask0_170_1276)">
<path fill-rule="evenodd" clip-rule="evenodd" d="M-10.566 0H46.0943V37.7736H-10.566V0Z" fill="#199D00"/>
<path fill-rule="evenodd" clip-rule="evenodd" d="M3.7097 10.7049C3.65068 11.5902 3.56215 13.1395 4.32205 13.3019C5.2295 13.3904 4.72782 11.7673 5.05981 11.4722C5.11883 11.3246 5.2295 11.3246 5.23688 11.5091V12.8887C5.23688 13.3314 5.53198 13.4642 5.75331 13.5527C5.9894 13.5379 6.15171 13.5527 6.24024 13.774L6.35828 16.157C6.35828 16.157 6.90423 16.3193 6.93374 14.8217C6.95587 13.9363 6.75667 13.2059 6.87472 13.0363C6.87472 12.8666 7.09604 12.8592 7.2436 12.9403C7.47968 13.1027 7.58297 13.3092 7.95185 13.2355C8.51255 13.0731 8.85193 12.8002 8.8593 12.3723C8.84823 11.9518 8.76073 11.5368 8.60109 11.1476C8.6306 11.0738 8.4978 10.8746 8.52731 10.8008C8.62322 10.9631 8.77815 10.9484 8.80766 10.8008C8.71175 10.491 8.5642 10.1885 8.32811 10.0631C8.12892 9.886 7.83381 9.91551 7.7379 10.2844C7.67888 10.7049 7.88545 11.1992 8.18794 11.6124C8.25434 11.7673 8.34287 12.0329 8.30598 12.269C8.14367 12.3649 7.98136 12.3206 7.84119 12.1805C7.84119 12.1805 7.39853 11.8485 7.39853 11.7673C7.51657 11.0148 7.42066 10.9262 7.35426 10.7123C7.31 10.4246 7.16982 10.3287 7.05916 10.1368C6.94849 10.0188 6.80094 10.0188 6.72716 10.1368C6.52797 10.4762 6.62387 11.2066 6.76405 11.5386C6.86734 11.8411 7.02227 12.0329 6.94849 12.0329C6.88947 12.2026 6.76405 12.1583 6.66814 11.9591C6.56017 11.5399 6.50808 11.1083 6.51321 10.6754C6.47632 10.336 6.43206 9.61303 6.20335 9.42121C6.07055 9.24414 5.87135 9.33268 5.79758 9.49498C5.7781 9.82457 5.7855 10.1552 5.81971 10.4836C5.96726 11.0295 6.01891 11.5165 6.09268 12.0698C6.11482 12.8149 5.66478 12.3944 5.68691 12.0181C5.7837 11.5451 5.77614 11.0567 5.66478 10.5869C5.591 10.3951 5.50985 10.3508 5.32541 10.3803C5.18523 10.3803 4.82373 10.7713 4.72044 11.4353C4.72044 11.4353 4.63191 11.7747 4.59502 12.0772C4.54338 12.4165 4.32205 12.6674 4.15974 12.0329C4.02694 11.5681 3.93841 10.4393 3.71708 10.7049H3.7097Z" fill="white"/>
<path fill-rule="evenodd" clip-rule="evenodd" d="M6.18122 14.3274L3.82037 15.4635C3.84251 14.925 4.9344 13.9585 5.68692 13.9511C6.16647 13.9585 6.04842 14.1356 6.17385 14.3274H6.18122Z" fill="white"/>
<path fill-rule="evenodd" clip-rule="evenodd" d="M5.76065 15.0651C4.52121 18.2744 8.67482 18.7244 9.13962 15.1979C9.18388 15.0504 9.36095 14.9102 9.39046 15.1463C9.29455 18.3408 6.1738 18.5548 5.64261 17.5514C5.51765 17.2062 5.45519 16.8414 5.45817 16.4743C5.38439 15.8472 5.0524 16.0906 5.00075 16.7103C4.94911 17.0571 4.96387 17.153 4.96387 17.485C5.12617 20.0082 9.14699 18.9236 9.80361 16.8431C10.1504 15.6922 9.74458 14.8438 9.92903 14.8438C10.3274 15.2717 10.8881 14.9028 11.0135 14.7553C11.0652 14.6815 11.198 14.6298 11.2865 14.7258C11.5964 14.9471 12.1423 14.8438 12.2604 14.4528C12.3268 14.0618 12.3784 13.6634 12.3932 13.2576C12.1349 13.3314 11.9505 13.383 11.9284 13.4937L11.8767 13.8331C11.8546 13.9437 11.6406 13.9437 11.6259 13.8035C11.53 13.3609 11.1316 13.3092 10.8881 13.988C10.7332 14.1208 10.4381 14.1503 10.4086 13.9511C10.4455 13.4937 10.261 13.4347 9.89214 13.6486L9.53801 10.9779C9.68556 10.9779 9.83312 11.0886 9.97329 10.9115C9.82574 10.432 9.49374 9.45811 9.3093 9.38433C9.22815 9.28105 9.15437 9.34744 9.03633 9.37695C8.84451 9.43598 8.66745 9.59828 8.72647 9.9229C8.9478 11.3099 9.09535 12.3649 9.32406 13.7593C9.36095 13.9142 9.22815 14.1282 9.05108 14.106C8.75598 13.9068 8.6822 13.5011 8.16577 13.5158C7.79688 13.5158 7.38374 13.9216 7.33209 14.3052C7.26569 14.6151 7.24356 14.9471 7.33209 15.2127C7.59031 15.5225 7.90017 15.493 8.17314 15.4266C8.39447 15.3307 8.57892 15.1094 8.66007 15.161C8.71171 15.2274 8.66745 15.9652 7.60507 16.5259C6.96321 16.821 6.44677 16.88 6.1738 16.3562C6.00411 16.0242 6.18856 14.7774 5.76065 15.0651Z" fill="white"/>
<path fill-rule="evenodd" clip-rule="evenodd" d="M11.0505 11.8042C11.2939 11.7157 12.4743 10.3582 12.4743 10.3582L12.2973 10.2107C12.2309 10.159 12.2383 10.1 12.2973 10.0483C12.5924 9.87128 12.4965 9.5024 12.3489 9.32534C12.2487 9.2765 12.1386 9.25174 12.0271 9.25302C11.9157 9.2543 11.8061 9.28159 11.7071 9.33271C11.5005 9.53191 11.4562 9.84915 11.6185 10.041C11.7735 10.1147 11.9284 10.2771 11.8251 10.3656C11.3382 10.882 10.0176 11.7747 10.1725 11.8042C10.202 11.8485 11.0209 11.8485 11.0431 11.8042H11.0505ZM3.89413 16.5997C3.45147 17.308 3.41458 18.363 3.65805 18.6802C3.79084 18.8278 4.00479 18.8942 4.15973 18.8425C4.44008 18.7245 4.5655 18.1564 4.4991 17.9572C4.40319 17.8096 4.32941 17.7875 4.2335 17.9055C4.04168 18.3039 3.96053 18.031 3.9384 17.8096C3.91725 17.4348 3.93704 17.0588 3.99742 16.6882C4.04906 16.3784 3.99742 16.4669 3.89413 16.5997ZM22.8621 15.4709C22.4342 14.5413 21.8366 13.6265 21.6521 13.2798C21.0772 12.3709 20.4669 11.4849 19.8225 10.6238C19.3651 10.0779 20.575 10.8525 19.6749 9.76062L19.0183 9.20729C18.8708 9.10401 18.5166 8.91219 18.4576 9.22205C18.4281 9.5024 18.4429 9.64995 18.4871 9.87866C18.524 10.0262 18.7453 10.2844 18.856 10.432C20.3685 12.4354 21.697 14.5713 22.8252 16.8137C23.017 16.7177 22.9727 15.6259 22.8621 15.4709Z" fill="white"/>
<path fill-rule="evenodd" clip-rule="evenodd" d="M20.9808 18.5548C20.8922 18.6507 21.1873 19.0564 21.571 19.0564C22.2055 18.9827 22.7662 18.6285 23.2826 17.6842C23.4925 17.3701 23.6263 17.0114 23.6736 16.6366C23.7361 14.8456 23.5925 13.0534 23.2457 11.2952C23.2236 11.1476 23.2457 10.9705 23.2605 10.9263C23.3047 10.8746 23.4449 10.9263 23.5187 10.8008C23.6294 10.6902 23.2236 9.76798 23.0023 9.42123C22.9285 9.25892 22.8916 9.15563 22.7588 9.43598C22.5985 9.74533 22.5222 10.0913 22.5375 10.4393C22.8399 12.542 22.9359 14.379 23.1277 16.4816C23.1498 16.6882 23.1203 16.9833 22.9801 17.1014C22.4234 17.7212 21.7421 18.2165 20.9808 18.5548ZM29.5757 18.5474C29.1183 18.813 29.1183 19.1155 29.4872 19.1228C30.1217 19.0491 30.8742 18.9974 31.3906 18.2154C31.5731 17.8471 31.6785 17.4454 31.7005 17.035C31.7934 15.2716 31.677 13.5033 31.3538 11.7673C31.339 11.6198 31.2726 11.273 31.2947 11.2288C31.339 11.1255 31.5456 11.2361 31.6194 11.1181C31.7226 11.0074 31.0808 10.1811 30.8521 9.827C30.7783 9.66469 30.7488 9.5614 30.6086 9.84175C30.46 10.1539 30.4135 10.505 30.4758 10.8451C30.8152 13.1322 31.066 14.8438 31.1177 16.8653C31.0882 17.0571 31.0808 17.1604 30.9923 17.4038C30.7931 17.6547 30.5717 17.9793 30.3652 18.1342C30.1586 18.2818 29.7159 18.4293 29.5757 18.5474Z" fill="white"/>
<path fill-rule="evenodd" clip-rule="evenodd" d="M29.9151 16.5038C29.9151 15.9652 29.9225 15.5078 29.9078 15.102C29.903 14.7584 29.8277 14.4194 29.6864 14.106C29.5536 13.8036 29.6348 13.5601 29.5684 13.2355C29.5094 12.9109 29.5241 12.4239 29.4356 12.0477C29.4061 11.9001 29.3323 11.4206 29.3544 11.3689C29.3913 11.2657 29.5315 11.3689 29.6053 11.2509C29.7086 11.1402 29.2364 9.92292 29.0003 9.57617C28.9191 9.42124 28.7568 9.47288 28.5724 9.72372C28.388 9.89341 28.4544 10.2697 28.5281 10.6312C28.9782 13.0142 29.3249 15.1758 29.2511 17.4407C29.2216 17.6326 29.9151 16.8653 29.9151 16.5038ZM26.5435 13.5527C26.2558 13.538 25.6582 12.9846 25.4812 12.6674C25.4522 12.5899 25.4398 12.5071 25.4449 12.4245C25.45 12.3419 25.4724 12.2613 25.5107 12.1879C25.6213 12.1141 25.7836 12.0403 25.9091 12.1141C25.9091 12.1141 26.0345 12.2911 26.0124 12.3133C26.1599 12.3871 26.2337 12.3502 26.2484 12.2838C26.2558 12.1731 26.2042 12.1067 26.2042 11.9887C26.2706 11.6493 26.6468 11.5976 26.7944 11.8116C26.8977 11.9444 26.9419 12.2174 26.9493 12.4018C26.9493 12.4977 26.8018 12.3871 26.7059 12.4018C26.6247 12.4313 26.6026 12.5346 26.5952 12.6231C26.5804 12.8666 26.5509 13.2576 26.5435 13.5453V13.5527ZM21.2464 17.094C21.3202 16.371 21.2169 15.0799 21.2095 14.652C21.17 13.5515 21.079 12.4535 20.9365 11.3616C20.848 10.7418 21.1874 11.428 21.1431 11.0665C21.0324 10.4541 20.6931 10.0336 20.2873 9.48026C20.1619 9.29582 20.1619 9.25893 19.9627 9.52453C19.7413 10.0188 19.9332 10.3656 19.9922 10.7566C20.2799 12.0256 20.4496 13.1912 20.5308 14.3495C20.6157 15.5527 20.6256 16.7601 20.5603 17.9646C20.7816 17.9719 21.121 17.6178 21.2464 17.094Z" fill="white"/>
<path fill-rule="evenodd" clip-rule="evenodd" d="M30.8963 15.9357C30.3873 15.0799 29.6274 14.1651 29.4208 13.8183C28.7367 12.863 28.0181 11.9328 27.2665 11.0296C26.6394 10.3656 27.5616 10.9189 27.1485 10.4025C26.8017 10.0262 26.7058 9.90078 26.4034 9.67208C26.2558 9.57617 26.1673 9.39173 26.1082 9.70897C26.0847 9.98375 26.0798 10.2598 26.0935 10.5353C26.0935 10.6607 26.2263 10.9041 26.3443 11.0517C27.8715 12.933 29.5462 14.8512 30.889 17.2637C31.0808 17.1678 31.0144 16.0833 30.889 15.9357H30.8963Z" fill="white"/>
<path fill-rule="evenodd" clip-rule="evenodd" d="M7.92238 14.3643C7.88549 14.4307 7.80434 14.5119 7.83385 14.593C7.88549 14.6668 7.93713 14.6889 8.02567 14.6889C8.10682 14.6889 8.22486 14.7111 8.247 14.6668C8.29126 14.6152 8.32077 14.5193 8.29126 14.4233C8.20273 14.202 7.96665 14.2905 7.92238 14.3643Z" fill="#1BA400"/>
<path fill-rule="evenodd" clip-rule="evenodd" d="M25.009 26.744C25.6878 26.7735 26.1304 26.7809 26.728 26.8473L27.4363 26.7735C28.2183 26.6998 28.2478 27.8876 28.2478 27.8876C28.2478 28.5884 27.9748 28.6253 27.6281 28.6991C27.4289 28.7286 27.333 28.5811 27.2223 28.4335C27.0555 28.487 26.8777 28.4972 26.7059 28.463C26.4181 28.4483 26.1378 28.4483 25.8574 28.4261C25.5623 28.404 25.4 28.463 25.0975 28.4335C25.0385 28.5294 24.95 28.6622 24.7729 28.6253C24.6254 28.6032 24.4409 28.1827 24.4926 27.8507C24.6032 27.6146 24.5664 27.6957 24.5664 27.5925C21.7924 27.5187 18.9962 27.3933 16.2812 27.4302C14.1565 27.4375 12.0612 27.5261 9.9586 27.6146C8.83719 27.5998 7.98139 27.4228 7.39117 26.5596C7.4502 26.5596 10.2537 26.7145 11.0726 26.6629C12.585 26.6481 13.972 26.5227 15.514 26.4784C18.5536 26.5301 21.571 26.5301 24.6106 26.744C24.3155 26.5448 24.3155 26.08 24.7582 25.962C24.7951 25.9325 24.8172 26.1907 24.8836 26.1833C25.2451 26.1612 25.0828 26.6481 25.009 26.744ZM12.7916 9.982C12.3342 11.2952 13.0572 12.7412 13.5589 12.6011C13.9278 12.7486 14.1491 12.0551 14.2967 11.3026C14.4073 11.0887 14.4811 11.0665 14.5327 11.1772C14.518 12.1805 14.6065 12.4093 14.8647 12.7117C15.4402 13.1544 15.9197 12.7708 15.9566 12.7339L16.3993 12.2838C16.5026 12.1732 16.6354 12.1732 16.7755 12.2617C16.9157 12.3871 16.8936 12.6011 17.1887 12.7486C17.4395 12.8519 17.9634 12.7781 18.0888 12.5642C18.2511 12.2765 18.2953 12.1805 18.3691 12.0773C18.4872 11.9223 18.6864 11.9887 18.6864 12.0404C18.6642 12.1289 18.5462 12.2101 18.6273 12.3724C18.7749 12.4756 18.8044 12.4093 18.8856 12.3871C19.1807 12.2396 19.402 11.6051 19.402 11.6051C19.4094 11.369 19.2766 11.3838 19.188 11.4428L18.9593 11.5977C18.8118 11.6198 18.5388 11.7158 18.3986 11.5018C18.2585 11.251 18.2585 10.8895 18.1552 10.6312C18.1552 10.6165 17.9634 10.2255 18.1404 10.2033C18.2289 10.2181 18.4134 10.2697 18.4429 10.1148C18.5314 9.95987 18.2511 9.52459 18.0519 9.30326C17.8822 9.11882 17.6461 9.09669 17.4174 9.2885C17.2551 9.43606 17.2772 9.59837 17.2477 9.7533C17.2197 9.86432 17.2185 9.98041 17.2442 10.092C17.2698 10.2036 17.3216 10.3075 17.3953 10.3952C17.5576 10.705 17.8453 11.1108 17.7494 11.6862C17.7494 11.6862 17.5797 11.9518 17.2846 11.9149C17.1592 11.8928 16.96 11.8412 16.8567 11.0444C16.7755 10.4542 16.8715 9.61312 16.6206 9.22211C16.5247 8.97864 16.4583 8.74994 16.237 9.15571C16.178 9.31801 15.9197 9.56148 16.1042 10.0558C16.2787 10.5012 16.3297 10.9855 16.2517 11.4575C16.1411 11.6198 16.1189 11.6715 15.9788 11.8264C15.7869 12.0477 15.573 11.9887 15.4107 11.9076C15.2631 11.8117 15.1451 11.76 15.0713 11.428C15.0861 10.9116 15.1156 10.0632 15.0197 9.88609C14.8795 9.60574 14.6508 9.70903 14.5549 9.79756C14.116 10.2851 13.8221 10.8856 13.7064 11.5313C13.5736 11.9592 13.4335 11.8338 13.3376 11.6641C13.1015 11.4428 13.0793 9.69428 12.7916 9.982Z" fill="white"/>
<path fill-rule="evenodd" clip-rule="evenodd" d="M14.1786 12.8445C14.3926 12.6969 14.2967 12.5936 14.6065 12.9035C15.0065 13.6112 15.2387 14.4012 15.2853 15.2127C15.2705 15.4045 15.4033 15.5226 15.4697 15.4783C15.4992 15.0356 16.5837 14.4159 17.5797 14.3274C17.7273 14.2905 17.6535 14.0028 17.6756 13.8552C17.6166 13.3019 17.9855 12.8002 18.5019 12.7633C19.2102 12.8666 19.4463 13.2429 19.461 13.811C19.3799 14.9176 18.2289 15.102 17.5871 15.1906C17.4912 15.2275 17.4469 15.2717 17.5871 15.3234L20.2873 15.3381L20.4275 15.4119C20.4422 15.4857 20.3832 15.4267 20.2799 15.6037C20.1314 15.8647 20.0384 16.1535 20.007 16.4522C19.2028 16.7177 18.3691 16.821 17.5281 16.9317C17.233 17.0793 17.0854 17.2785 17.1444 17.4998C17.2477 17.7432 17.8969 17.9941 17.8969 18.0015C18.0224 18.0752 18.1625 18.2597 17.8601 18.6359C16.5468 18.5769 15.5213 18.0162 15.1672 17.2268C15.0639 17.1457 14.9459 17.2268 14.8721 17.3301C14.3557 17.9941 13.854 18.5843 12.9761 18.9089C12.4596 19.0417 11.921 18.8278 11.6702 18.4884C11.5005 18.2892 11.5079 18.0752 11.4489 18.031C11.1611 18.1564 8.72652 19.1893 9.03639 18.7023C9.6266 18.0752 10.6595 17.6031 11.5595 16.9833C11.6259 16.7694 11.744 16.0611 12.0981 15.8324C12.1202 15.8324 12.0465 16.2456 12.0538 16.4226C12.0538 16.5702 12.0391 16.6218 12.0686 16.585C12.135 16.5481 13.2269 15.6849 13.3228 15.4193C13.4261 15.2717 13.3449 14.8881 13.3449 14.8733C13.1384 14.3421 12.8506 14.2979 12.7473 14.0323C12.6514 13.6855 12.6957 13.2871 12.8949 13.1691C13.072 13.0142 13.2785 13.0289 13.4777 13.206C13.6991 13.4052 13.8909 13.7962 13.9499 14.0839C13.913 14.1946 13.6548 14.0101 13.581 14.0618C13.723 14.225 13.8174 14.424 13.854 14.6372C14.0015 15.2422 13.9573 15.4783 13.8097 15.8693C13.3228 16.8948 12.7031 17.1973 12.1571 17.5809C12.1424 17.5809 12.135 17.8392 12.3342 17.9793C12.408 18.0531 12.6957 18.09 13.0277 17.9793C13.737 17.5854 14.3105 16.9862 14.6729 16.2603C14.7356 15.708 14.6751 15.1487 14.4958 14.6225C14.2819 14.1282 14.0311 13.4273 14.0311 13.4126C14.0237 13.1027 14.0458 12.9994 14.1786 12.8445ZM7.11082 9.99671C7.42068 10.1443 8.01089 10.0779 7.98138 9.57618L7.96663 9.34747C7.90761 9.19992 7.73054 9.23681 7.69365 9.38436C7.6789 9.436 7.71579 9.51716 7.67152 9.53929C7.64201 9.5688 7.5461 9.55405 7.5461 9.41387C7.5461 9.36961 7.51659 9.32534 7.49446 9.29583C7.4797 9.28107 7.46495 9.28107 7.42806 9.28107C7.38379 9.28107 7.38379 9.28845 7.36166 9.32534C7.35428 9.36223 7.33953 9.39912 7.33953 9.44338C7.33953 9.49503 7.31002 9.50978 7.2805 9.51716C7.23624 9.51716 7.24362 9.51716 7.20673 9.5024C7.19197 9.48027 7.16984 9.47289 7.16984 9.42863L7.14771 9.31058C7.13295 9.28845 7.10344 9.2737 7.07393 9.26632C6.90424 9.26632 6.88949 9.46552 6.90424 9.53929C6.88949 9.55405 6.88211 9.9008 7.11082 9.99671Z" fill="white"/>
<path fill-rule="evenodd" clip-rule="evenodd" d="M16.2222 13.8478C16.5321 13.9954 17.2772 13.9142 17.0928 13.4347L17.078 13.1986C17.0116 13.051 16.8419 13.0879 16.805 13.2429C16.7903 13.2871 16.8272 13.3683 16.7755 13.3904C16.7534 13.4199 16.6501 13.4052 16.6575 13.2724C16.6575 13.2281 16.628 13.1765 16.6058 13.1469C16.5837 13.1396 16.5763 13.1322 16.5321 13.1322C16.4952 13.1322 16.4952 13.1469 16.473 13.1838C16.4583 13.2207 16.4509 13.2576 16.4509 13.3019C16.4435 13.3461 16.4214 13.3609 16.3845 13.3757C16.3476 13.3757 16.355 13.3757 16.3255 13.3535C16.3034 13.3314 16.2812 13.324 16.2812 13.2871L16.2591 13.1691C16.2443 13.1469 16.2148 13.1322 16.1853 13.1248C16.0156 13.1248 16.0009 13.3166 16.0082 13.3904C16.0009 13.4052 15.9935 13.7593 16.2296 13.8478H16.2222ZM21.5341 12.2543C21.844 12.4018 22.4268 12.3354 22.4047 11.8411L22.3899 11.605C22.3235 11.4575 22.1538 11.4944 22.1169 11.6419C22.1022 11.6936 22.1391 11.7747 22.0874 11.8042C22.0653 11.8263 21.962 11.8116 21.9694 11.6714C21.9694 11.6272 21.9399 11.5829 21.9177 11.5534C21.8956 11.5386 21.8882 11.5386 21.844 11.5386C21.8071 11.5386 21.8071 11.5534 21.7849 11.5903L21.7628 11.7009C21.7554 11.7526 21.7333 11.7747 21.6964 11.7747C21.6595 11.7747 21.6669 11.7747 21.6374 11.7599C21.6153 11.7378 21.5931 11.7304 21.5931 11.6935C21.5931 11.6567 21.5858 11.5976 21.571 11.5681C21.5562 11.546 21.5267 11.5386 21.4972 11.5312C21.3275 11.5312 21.3128 11.7231 21.3202 11.7968C21.3128 11.8116 21.3054 12.1583 21.5415 12.2543H21.5341ZM24.286 16.2603C23.7474 16.8727 23.9835 17.8834 24.1089 18.1047C24.286 18.4589 24.4261 18.6876 24.7729 18.8646C25.0901 19.0933 25.341 18.9532 25.4738 18.7909C25.791 18.4589 25.7984 17.6104 25.9459 17.4481C26.0492 17.1383 26.3148 17.1899 26.4402 17.3301C26.5576 17.4966 26.7149 17.6311 26.8977 17.7211C27.1928 17.9793 27.5469 18.031 27.901 17.7949C28.1371 17.6547 28.292 17.485 28.4322 17.1383C28.5798 16.7251 28.506 14.8069 28.4691 13.6708L28.1592 12.0846C28.1592 12.0698 28.1224 11.332 28.0855 11.1624C28.0855 11.0886 28.0633 11.0664 28.1371 11.0738C28.2183 11.1476 28.2256 11.1476 28.2847 11.1697C28.3584 11.1845 28.4322 11.0443 28.3806 10.9263L27.6428 9.55403C27.5838 9.49501 27.5026 9.43599 27.4067 9.56879C27.3501 9.62001 27.3051 9.68268 27.2746 9.75264C27.244 9.82259 27.2287 9.89824 27.2297 9.97456C27.2518 10.2992 27.3034 10.6312 27.3256 10.9558L27.6207 12.6231C27.7166 13.8036 27.7387 14.7774 27.8346 15.9652C27.8199 16.4669 27.6649 16.9022 27.5174 16.9686C27.5174 16.9686 27.2961 17.094 27.1485 16.9538C27.0378 16.9096 26.6026 16.2234 26.6026 16.2234C26.3812 16.0242 26.2337 16.0759 26.0787 16.2234C25.6361 16.6513 25.4443 17.4334 25.1418 17.9793C25.068 18.1047 24.8467 18.2006 24.6106 17.9719C24.0056 17.1383 24.3597 15.9578 24.286 16.2603ZM21.6743 9.34746C21.9546 9.45812 22.1465 10.0262 22.0874 10.3066C22.0284 10.6385 21.8809 11.0074 21.7776 10.9632C21.6595 10.9189 21.8513 10.6238 21.7407 10.3139C21.6817 10.1074 21.298 9.73847 21.3423 9.63518C21.2685 9.40648 21.5046 9.30319 21.6743 9.34008V9.34746Z" fill="white"/>
<path fill-rule="evenodd" clip-rule="evenodd" d="M25.1861 16.5997C25.2377 15.921 25.1418 15.5078 25.127 15.1095C25.1123 14.7111 24.677 11.6715 24.5885 11.3764C24.4778 10.8009 25.009 11.3026 24.95 10.9632C24.7655 10.5501 24.3155 9.93772 24.1753 9.57621C24.0868 9.42866 24.1237 9.2811 23.9319 9.53932C23.7667 9.99206 23.7086 10.4769 23.7622 10.9558C24.2196 13.3388 24.6844 15.316 24.6106 17.581C24.8319 17.581 25.0754 17.0867 25.1861 16.5997ZM29.9373 10.3066C30.1955 10.432 30.343 11.1403 30.3135 11.3395C30.2619 11.7084 30.1291 12.1067 30.0332 12.0551C29.9225 12.0108 30.0553 11.5092 30.0037 11.3542C29.9446 11.1329 29.5979 10.7345 29.6348 10.6165C29.561 10.3656 29.7823 10.2623 29.9373 10.3066ZM11.0726 15.316C11.3161 15.4119 11.4636 15.9284 11.4415 16.0759C11.3825 16.3489 11.257 16.644 11.1611 16.5997C11.0652 16.5702 11.1833 16.2013 11.139 16.0833C11.1169 15.8103 10.7775 15.6628 10.7849 15.5447C10.7258 15.3234 10.9324 15.2865 11.08 15.316H11.0726Z" fill="white"/>
<path fill-rule="evenodd" clip-rule="evenodd" d="M16.9452 16.0981C17.2551 16.1128 17.41 16.3637 17.1223 16.467C16.8272 16.5629 16.5542 16.644 16.5468 17.0572C16.6575 17.6474 16.3993 17.4408 16.2517 17.367C16.0747 17.2342 15.573 16.9244 15.4992 16.2604C15.4918 16.1054 15.6173 15.9653 15.8164 15.9653C16.1116 16.0464 16.5542 16.0538 16.9452 16.0981Z" fill="#1B9D00"/>
<path fill-rule="evenodd" clip-rule="evenodd" d="M4.58766 9.1778C4.94179 9.28109 4.96392 9.81228 4.94179 9.96721C4.89015 10.2476 4.76473 10.55 4.6762 10.5132C4.57291 10.4763 4.6762 10.0926 4.62455 9.97459C4.57291 9.81228 4.27043 9.50242 4.29994 9.41389C4.23354 9.22944 4.44749 9.14091 4.58766 9.1778ZM11.6628 11.6567C11.3825 11.8042 11.2792 12.2469 11.4489 12.5125C11.6112 12.7338 11.862 12.6527 11.8915 12.6527C12.1645 12.6822 12.3268 12.1436 12.3268 12.1436C12.3268 12.1436 12.3342 11.9961 12.017 12.2838C11.8768 12.3059 11.8694 12.2543 11.8325 12.1805C11.7987 12.0401 11.8117 11.8924 11.8694 11.76C11.9211 11.6272 11.8178 11.5682 11.6628 11.6567ZM13.7286 8.97123C13.581 9.06714 13.3081 9.35486 13.3007 9.67948C13.2933 9.86392 13.2564 9.86392 13.3745 9.97459C13.4704 10.1074 13.5515 10.1 13.7286 10.0041C13.7727 9.97632 13.8106 9.93968 13.8398 9.8965C13.869 9.85332 13.8889 9.80454 13.8983 9.75326C13.9425 9.54668 13.6769 9.85654 13.6474 9.62046C13.5884 9.39913 13.7581 9.3106 13.9204 9.10402C13.9204 8.95647 13.9204 8.86056 13.7212 8.97123H13.7286ZM15.3812 9.26633C15.3161 9.53498 15.2766 9.80917 15.2631 10.0853C15.2189 10.2918 15.4845 10.3804 15.5951 10.1148C15.7722 9.63522 15.7722 9.42864 15.7869 9.22944C15.7353 8.9122 15.5213 8.91958 15.3812 9.26633ZM25.8574 14.6004C25.887 14.5635 27.333 13.538 27.333 13.538C27.4805 13.4864 27.4436 14.0692 27.3772 14.0618C26.9288 14.494 26.413 14.8503 25.8501 15.1168C25.7763 15.1685 25.7099 14.7258 25.8501 14.6004H25.8574ZM27.1633 14.5856C27.4215 14.711 27.5248 15.4562 27.4953 15.6554C27.4953 16.0538 27.2518 16.3636 27.1485 16.3194C27.0452 16.2677 27.1633 15.8251 27.1116 15.6701C27.0526 15.4488 26.8387 15.043 26.8756 14.925C26.8018 14.6742 27.0084 14.5414 27.1707 14.5856H27.1633ZM18.6052 17.7875C18.7249 17.6478 18.864 17.5261 19.0184 17.426C19.1659 17.3522 19.2987 17.485 19.2913 17.4777C19.3135 17.6252 19.2028 17.7506 19.2397 17.9425C19.2692 18.0162 19.2913 18.1048 19.4315 18.0753C19.6602 17.8908 19.8742 17.8761 20.0955 17.8687C20.2799 17.8761 20.2873 18.1785 20.1693 18.1785C19.7487 18.2671 19.5643 18.3851 19.2618 18.4958C19.1143 18.5843 18.9962 18.4736 18.9962 18.4663C18.9962 18.4589 18.9151 18.3851 18.9667 18.1933C18.9815 18.0457 18.9224 17.9572 18.7896 17.972C18.7011 18.031 18.6126 18.0605 18.5683 17.9498C18.5462 17.8761 18.5388 17.8318 18.6052 17.7875ZM28.6831 18.1859C28.7421 18.2597 28.7864 18.3335 28.6757 18.4663L28.4027 18.7024C28.3585 18.7761 28.329 18.9089 28.4765 18.9458C28.7421 19.0196 29.3618 18.6138 29.3618 18.6064C29.4651 18.5327 29.4356 18.3851 29.4208 18.3851C29.3618 18.3187 29.229 18.363 29.1405 18.3482C29.0962 18.3482 28.9561 18.3335 29.0225 18.2007C29.072 18.1355 29.1118 18.0634 29.1405 17.9867C29.1774 17.8982 29.1405 17.8392 28.9929 17.7875C28.838 17.758 28.7716 17.7728 28.6019 17.7875C28.5134 17.8023 28.4839 17.8465 28.4618 17.9572C28.4691 18.1269 28.5724 18.1195 28.6831 18.1785V18.1859Z" fill="white"/>
<path fill-rule="evenodd" clip-rule="evenodd" d="M18.6568 13.9954C18.6199 14.0692 18.4871 14.0692 18.3617 13.9954C18.2363 13.9216 18.1625 13.8036 18.2068 13.7372C18.2511 13.6708 18.3765 13.6708 18.5019 13.7372C18.6273 13.8036 18.6937 13.929 18.6568 13.9954ZM12.0907 10.041C12.0169 10.0631 11.9137 9.99673 11.8694 9.89344C11.8251 9.79015 11.8473 9.70162 11.921 9.67949C11.9948 9.65736 12.0907 9.73113 12.1424 9.82704C12.194 9.92295 12.1645 10.0262 12.0833 10.0484L12.0907 10.041Z" fill="#259F00"/>
<path fill-rule="evenodd" clip-rule="evenodd" d="M25.0828 27.6662C25.7763 27.6957 26.4255 27.6662 27.1116 27.7031C27.237 27.8138 27.1485 28.072 27.0673 28.0572L26.4919 28.0351C26.4845 27.8138 25.9238 27.8506 25.9386 28.0425C25.6361 28.0793 25.3631 28.0351 25.0532 28.0203C24.9647 27.9097 24.9795 27.7105 25.0828 27.6662Z" fill="#209000"/>
</g>
</svg>
