<svg width="35" height="35" viewBox="0 0 35 35" fill="none" xmlns="http://www.w3.org/2000/svg">
<mask id="mask0_170_1259" style="mask-type:alpha" maskUnits="userSpaceOnUse" x="0" y="0" width="35" height="35">
<circle cx="17.5" cy="17.5" r="17.5" fill="#33956D"/>
</mask>
<g mask="url(#mask0_170_1259)">
<path d="M-12.9897 -1.08252H48.6415V36.6914H-12.9897V-1.08252Z" fill="#1E50A0"/>
<path d="M21.8021 10.7031V13.8284H31.9225L48.6414 3.58069V-1.0824H41.033L21.8021 10.7031Z" fill="white"/>
<path d="M48.6414 -1.0824H44.8372L21.8021 13.0361V13.8284H25.2633L48.6414 -0.499883V-1.0824Z" fill="#D22F27"/>
<path d="M41.034 36.6914H48.6414V32.0273L31.9235 21.7806H21.8021V24.9049L41.034 36.6914Z" fill="white"/>
<path d="M48.6415 36.6914V34.3584L28.1193 21.7806H23.3608L47.6892 36.6914H48.6415Z" fill="#D22F27"/>
<path d="M13.8497 24.9059V21.7806H3.72925L-12.9897 32.0283V36.6914H-5.38122L13.8497 24.9059Z" fill="white"/>
<path d="M-12.9897 36.6914H-9.18545L13.8497 22.5729V21.7806H10.3884L-12.9897 36.1089V36.6914Z" fill="#D22F27"/>
<path d="M-5.38222 -1.08252H-12.9897V3.58157L3.72826 13.8282H13.8497V10.7039L-5.38222 -1.08252Z" fill="white"/>
<path d="M-12.9897 -1.08252V1.25052L7.53348 13.8282H12.291L-12.0374 -1.08252H-12.9897Z" fill="#D22F27"/>
<path d="M-12.9897 12.8342H48.6415V22.7747H-12.9897V12.8342Z" fill="white"/>
<path d="M12.8557 -1.0824H22.7962V36.6915H12.8557V-1.0824Z" fill="white"/>
<path d="M-12.9897 14.8224H48.6415V20.7867H-12.9897V14.8224Z" fill="#D22F27"/>
<path d="M14.8438 -1.0824H20.8081V36.6915H14.8438V-1.0824Z" fill="#D22F27"/>
<path d="M-12.9897 -1.08252H48.6415V36.6914H-12.9897V-1.08252Z" stroke="black" stroke-width="2.78323" stroke-linecap="round" stroke-linejoin="round"/>
</g>
</svg>
