<svg width="780" height="629" viewBox="0 0 780 629" fill="none" xmlns="http://www.w3.org/2000/svg">
<g clip-path="url(#clip0_95_50)">
<path d="M219.564 418.264C268.437 418.264 308.057 378.625 308.057 329.728C308.057 280.831 268.437 241.192 219.564 241.192C170.69 241.192 131.07 280.831 131.07 329.728C131.07 378.625 170.69 418.264 219.564 418.264Z" fill="#E6E6E6"/>
<path d="M195.655 459.015L217.423 472.51V381.286L193.023 366.159C191.006 364.908 189.532 362.945 188.893 360.658C191.224 360.213 193.637 360.66 195.655 361.91L217.423 375.406V340.032C217.423 333.188 218.262 326.371 219.921 319.732C221.58 326.371 222.418 333.188 222.418 340.032V397.769L254.533 377.859C257.097 376.269 260.064 375.451 263.08 375.5C261.782 378.224 259.728 380.518 257.164 382.108L222.418 403.649V619.388H217.423V478.39L193.023 463.263C191.006 462.013 189.532 460.05 188.893 457.763C191.224 457.317 193.637 457.764 195.655 459.015Z" fill="#CCCCCC"/>
<path d="M88.4934 425.782C137.367 425.782 176.987 386.143 176.987 337.245C176.987 288.348 137.367 248.709 88.4934 248.709C39.6198 248.709 0 288.348 0 337.245C0 386.143 39.6198 425.782 88.4934 425.782Z" fill="#E6E6E6"/>
<path d="M112.402 466.532L90.6343 480.028V388.803L115.034 373.676C117.051 372.425 118.525 370.462 119.164 368.176C116.833 367.73 114.42 368.177 112.402 369.428L90.6342 382.923V347.549C90.6342 340.706 89.7953 333.888 88.1364 327.249C86.4775 333.888 85.6386 340.706 85.6386 347.549V405.286L53.5246 385.376C50.9604 383.787 47.9934 382.968 44.9771 383.017C46.2754 385.742 48.329 388.035 50.8933 389.625L85.6388 411.166V619.864H90.6343V485.907L115.034 470.78C117.051 469.53 118.525 467.567 119.164 465.28C116.833 464.835 114.42 465.281 112.402 466.532Z" fill="#CCCCCC"/>
<path d="M152.776 304.875C236.924 304.875 305.139 236.626 305.139 152.437C305.139 68.2485 236.924 0 152.776 0C68.6284 0 0.413086 68.2485 0.413086 152.437C0.413086 236.626 68.6284 304.875 152.776 304.875Z" fill="#E6E6E6"/>
<path d="M193.942 375.036L156.463 398.272V241.207L198.472 215.162C201.945 213.009 204.483 209.629 205.583 205.692L205.583 205.692H205.583C201.57 204.925 197.415 205.694 193.942 207.847L156.463 231.083V170.178C156.463 158.395 155.018 146.657 152.162 135.227C149.306 146.657 147.861 158.395 147.861 170.178V269.587L92.569 235.307C88.1539 232.57 83.0456 231.16 77.8523 231.245C80.0877 235.936 83.6234 239.885 88.0385 242.622L147.861 279.71V620.199H156.463V408.396L198.472 382.351C201.945 380.198 204.483 376.818 205.583 372.881L205.583 372.881H205.583C201.57 372.114 197.415 372.883 193.942 375.036Z" fill="#CCCCCC"/>
<path d="M780 619.388H60.7671V621.21H780V619.388Z" fill="#3F3D56"/>
<path d="M594.769 275.021L559.073 295.64L579.682 331.354L615.379 310.735L594.769 275.021Z" fill="#FF6584"/>
<path d="M595.223 338.798L573.702 301.506L610.976 279.975L632.497 317.268L595.223 338.798ZM576.19 302.173L595.889 336.309L630.009 316.601L610.31 282.464L576.19 302.173Z" fill="#2F2E41"/>
<path d="M561.829 439.008C571.382 439.008 579.127 431.26 579.127 421.702C579.127 412.144 571.382 404.395 561.829 404.395C552.275 404.395 544.531 412.144 544.531 421.702C544.531 431.26 552.275 439.008 561.829 439.008Z" fill="#D0CDE1"/>
<path d="M574.575 439.919C570.973 439.919 567.453 438.85 564.458 436.849C561.464 434.847 559.13 432.002 557.752 428.673C556.374 425.344 556.013 421.681 556.716 418.148C557.419 414.614 559.153 411.368 561.699 408.82C564.246 406.272 567.49 404.537 571.022 403.834C574.554 403.131 578.215 403.492 581.543 404.871C584.87 406.25 587.714 408.585 589.714 411.581C591.715 414.576 592.783 418.099 592.783 421.702C592.783 426.533 590.865 431.167 587.45 434.583C584.035 438 579.404 439.919 574.575 439.919ZM574.575 405.306C571.333 405.306 568.165 406.268 565.47 408.069C562.775 409.871 560.675 412.431 559.434 415.427C558.194 418.423 557.87 421.72 558.502 424.9C559.134 428.081 560.695 431.002 562.987 433.295C565.279 435.588 568.199 437.15 571.378 437.782C574.556 438.415 577.851 438.09 580.846 436.849C583.84 435.608 586.4 433.507 588.2 430.81C590.001 428.114 590.962 424.944 590.962 421.702C590.962 417.353 589.236 413.183 586.162 410.108C583.089 407.033 578.921 405.306 574.575 405.306Z" fill="#2F2E41"/>
<path d="M670.953 623.531H503.436C501.384 623.529 499.417 622.712 497.967 621.261C496.516 619.809 495.7 617.842 495.697 615.789V460.031C495.7 457.978 496.516 456.01 497.967 454.559C499.417 453.108 501.384 452.291 503.436 452.289H670.953C673.005 452.291 674.972 453.108 676.423 454.559C677.874 456.01 678.69 457.978 678.692 460.031V615.789C678.69 617.842 677.874 619.809 676.423 621.261C674.972 622.712 673.005 623.529 670.953 623.531Z" fill="#33956D"/>
<path d="M599.029 629H575.358C573.306 628.998 571.339 628.181 569.889 626.73C568.438 625.278 567.622 623.31 567.619 621.258V455.404C567.622 453.351 568.438 451.383 569.889 449.932C571.339 448.48 573.306 447.664 575.358 447.661H599.029C601.081 447.664 603.048 448.48 604.498 449.932C605.949 451.383 606.765 453.351 606.767 455.404V621.258C606.765 623.31 605.949 625.278 604.498 626.73C603.048 628.181 601.081 628.998 599.029 629Z" fill="#3F3D56"/>
<path d="M715.461 436.87C714.482 452.938 692.788 464.69 692.788 464.69C692.788 464.69 672.68 450.39 673.659 434.322C674.638 418.254 696.332 406.502 696.332 406.502C696.332 406.502 716.44 420.802 715.461 436.87Z" fill="#3F3D56"/>
<path d="M716.443 487.003C700.38 486.074 688.567 464.406 688.567 464.406C688.567 464.406 702.797 444.244 718.86 445.173C734.923 446.102 746.737 467.771 746.737 467.771C746.737 467.771 732.507 487.932 716.443 487.003Z" fill="#3F3D56"/>
<path opacity="0.1" d="M678.237 471.344V530.805L619.123 452.744H664.152L678.237 471.344Z" fill="black"/>
<path d="M728.421 573.129C727.225 573.131 726.044 572.856 724.972 572.324C723.9 571.793 722.967 571.019 722.244 570.065L599.088 407.438C598.474 406.628 598.026 405.705 597.769 404.721C597.512 403.737 597.451 402.713 597.589 401.705C597.728 400.698 598.064 399.728 598.577 398.851C599.091 397.973 599.772 397.206 600.582 396.592L618.724 382.84C619.534 382.226 620.457 381.777 621.44 381.52C622.423 381.263 623.447 381.202 624.454 381.341C625.461 381.48 626.43 381.816 627.307 382.33C628.184 382.844 628.951 383.525 629.565 384.336L752.722 546.962C753.335 547.772 753.783 548.696 754.041 549.679C754.298 550.663 754.358 551.688 754.22 552.695C754.081 553.702 753.745 554.672 753.232 555.549C752.718 556.427 752.037 557.194 751.227 557.809L733.085 571.56C731.744 572.58 730.105 573.131 728.421 573.129Z" fill="#33956D"/>
<path d="M679.124 446.761L647.921 470.414L671.563 501.633L702.766 477.98L679.124 446.761Z" fill="#3F3D56"/>
<path d="M518.609 327.796L507.941 367.63L547.755 378.303L558.424 338.469L518.609 327.796Z" fill="#D0CDE1"/>
<path d="M530.865 384.258L489.293 373.114L500.432 331.52L542.005 342.665L530.865 384.258ZM491.523 371.826L529.578 382.027L539.775 343.953L501.72 333.751L491.523 371.826Z" fill="#2F2E41"/>
<path d="M355.746 480.936C356.84 479.887 357.691 478.612 358.239 477.199C358.787 475.785 359.018 474.269 358.917 472.757C358.816 471.245 358.385 469.773 357.654 468.446C356.923 467.118 355.909 465.967 354.685 465.074L337.967 330.238L316.366 336.664L339.686 467.882C338.322 470.038 337.796 472.62 338.208 475.139C338.62 477.657 339.941 479.937 341.921 481.546C343.9 483.155 346.401 483.982 348.949 483.869C351.498 483.757 353.916 482.713 355.746 480.936Z" fill="#FFB8B8"/>
<path d="M375.769 609.814H388.403L394.416 561.06H375.769V609.814Z" fill="#FFB8B8"/>
<path d="M412.769 621.551H373.062V606.203H398.831C402.528 606.203 406.073 607.672 408.687 610.287C411.3 612.902 412.769 616.449 412.769 620.147V621.551Z" fill="#2F2E41"/>
<path d="M288.402 590.126L300.244 594.533L322.868 550.935L305.392 544.43L288.402 590.126Z" fill="#FFB8B8"/>
<path d="M318.991 614.032L281.775 600.183L287.124 585.797L311.276 594.785C314.74 596.074 317.551 598.688 319.09 602.051C320.628 605.413 320.769 609.25 319.48 612.716L318.991 614.032L318.991 614.032Z" fill="#2F2E41"/>
<path d="M353.105 295.236C366.298 295.236 376.994 284.535 376.994 271.336C376.994 258.136 366.298 247.436 353.105 247.436C339.912 247.436 329.217 258.136 329.217 271.336C329.217 284.535 339.912 295.236 353.105 295.236Z" fill="#FFB8B8"/>
<path d="M315.741 332.675C314.993 310.661 338.118 295.389 357.575 305.696C360.054 307.01 385.65 328.766 386.615 342.278C387.579 355.789 389.508 377.986 389.508 377.986L416.518 579.69L358.641 576.795L365.63 517.955L328.01 577.791L282.435 563.284L338.383 402.113C338.383 402.113 316.874 366.036 315.741 332.675Z" fill="#2F2E41"/>
<path d="M316.196 340.339L319.913 388.677C319.952 389.182 320.18 389.653 320.551 389.997C320.922 390.341 321.409 390.532 321.915 390.532H338.268C338.599 390.532 338.924 390.451 339.215 390.295C339.507 390.139 339.755 389.913 339.939 389.638C340.122 389.363 340.235 389.047 340.267 388.718C340.299 388.389 340.25 388.057 340.123 387.752L320.054 339.414C319.87 338.972 319.536 338.611 319.11 338.394C318.684 338.177 318.195 338.119 317.731 338.23C317.266 338.342 316.856 338.615 316.575 339.002C316.294 339.388 316.16 339.862 316.196 340.339Z" fill="#2F2E41"/>
<path d="M400.174 472.56C401.138 471.391 401.834 470.024 402.213 468.557C402.592 467.089 402.644 465.556 402.367 464.066C402.089 462.576 401.489 461.165 400.608 459.932C399.726 458.7 398.585 457.675 397.265 456.931L364.889 324.98L344.188 333.891L382.697 461.476C381.595 463.778 381.375 466.404 382.079 468.856C382.782 471.309 384.361 473.419 386.515 474.785C388.669 476.151 391.25 476.679 393.767 476.269C396.285 475.859 398.564 474.54 400.174 472.56Z" fill="#FFB8B8"/>
<path d="M347.065 313.325C347.065 313.325 340.313 326.836 347.065 350.963C353.817 375.091 358.641 395.358 358.641 395.358C358.641 395.358 374.074 385.707 380.827 388.602C387.579 391.497 370.146 324.285 370.146 324.285C370.146 324.285 359.605 301.744 347.065 313.325Z" fill="#2F2E41"/>
<path d="M358.711 275.065C359.033 270.106 365.287 269.936 370.254 269.889C375.221 269.842 381.159 270.019 383.97 265.922C385.827 263.214 385.472 259.454 383.938 256.551C382.403 253.648 379.879 251.415 377.396 249.266C370.986 243.72 364.379 238.218 356.682 234.668C348.986 231.118 339.966 229.684 331.984 232.534C322.179 236.034 308.924 254.054 307.779 264.406C306.635 274.759 310.77 285.313 317.741 293.049C324.712 300.786 340.667 297.664 350.708 300.416C344.604 291.773 348.628 276.067 358.406 272.03L358.711 275.065Z" fill="#2F2E41"/>
</g>
<defs>
<clipPath id="clip0_95_50">
<rect width="780" height="629" fill="white"/>
</clipPath>
</defs>
</svg>
