<svg width="20" height="20" viewBox="0 0 20 20" fill="none" xmlns="http://www.w3.org/2000/svg">
<path fill-rule="evenodd" clip-rule="evenodd" d="M5.68406 2.68788L3.75283 5.08452C4.56044 5.50558 4.90778 6.58849 4.32197 7.42436L2.78001 9.62455H8.29259L6.75063 7.42436C6.1141 6.51611 6.57932 5.31619 7.53961 4.99062L5.68406 2.68788ZM9.39789 4.90609L6.07339 0.780393C5.87325 0.532024 5.49486 0.532024 5.29473 0.780393L1.97022 4.90609L1.9611 4.91741L1.80655 5.10921L1.41722 5.59237C1.23975 5.81261 1.28733 6.10519 1.4656 6.27283C1.50849 6.31317 1.55894 6.34627 1.61565 6.36939C1.67328 6.3929 1.73738 6.40609 1.80655 6.40609H2.42705H2.67337H2.68791H2.86902H3.01171C3.09264 6.40609 3.14005 6.49721 3.0936 6.56348L3.01171 6.68033L2.29062 7.70924L2.15266 7.90609L0.948313 9.62455L0.945773 9.62817L0.858049 9.75334L0.448592 10.3376C0.216362 10.669 0.45341 11.1245 0.858049 11.1245H1.57149H1.72434H1.72877H4.80688V13.8343C4.42667 13.7963 4.04099 13.7768 3.65077 13.7768C2.94793 13.7768 2.25983 13.8399 1.59182 13.9608C1.16261 14.0384 0.919485 14.4837 1.05526 14.8982C1.17784 15.2724 1.56745 15.4861 1.95562 15.4198C2.50607 15.3258 3.07235 15.2768 3.65077 15.2768C6.8491 15.2768 9.69809 16.7795 11.5277 19.1216C11.736 19.3882 12.0861 19.5085 12.4076 19.4032C12.8824 19.2477 13.0832 18.6852 12.7795 18.2885C12.0984 17.3988 11.2901 16.6116 10.3819 15.9539C12.2029 14.028 14.782 12.8263 17.6418 12.8263C18.1301 12.8263 18.6102 12.8613 19.0798 12.929C19.5527 12.9972 20.0004 12.6463 20.0004 12.1685C20.0004 11.819 19.7556 11.5149 19.4102 11.4616C18.8338 11.3725 18.2432 11.3263 17.6418 11.3263C17.2584 11.3263 16.8794 11.3451 16.5056 11.3818V9.21951H18.188H18.1924H18.3453H19.0587C19.4633 9.21951 19.7004 8.76392 19.4682 8.43255L19.0587 7.84831L18.971 7.72314L18.9684 7.71951L18.3623 6.85466L18.2244 6.65781L17.5033 5.6289L17.4214 5.51205C17.3749 5.44578 17.4223 5.35466 17.5033 5.35466H17.6273H17.6418H17.646H17.8882H18.5087C18.6631 5.35466 18.7922 5.28889 18.8807 5.18946C18.9092 5.15741 18.9335 5.12186 18.953 5.08389C19.0378 4.91923 19.0334 4.70902 18.898 4.54094L18.5087 4.05778L18.3541 3.86598L18.345 3.85466L15.911 0.834104C15.7109 0.585735 15.3325 0.585735 15.1323 0.834104L12.6984 3.85466L12.6892 3.86598L12.5347 4.05778L12.1454 4.54094C12.0767 4.6261 12.0418 4.72207 12.035 4.81746C12.0342 4.82868 12.0338 4.83989 12.0338 4.85107C12.0331 5.11002 12.2369 5.35466 12.5347 5.35466H13.1552H13.1553H13.298C13.3317 5.35466 13.3597 5.3705 13.3774 5.39378L13.3807 5.39848C13.4025 5.43075 13.4057 5.47523 13.3799 5.51205L13.298 5.6289L12.5769 6.65781L12.5347 6.71804L12.4404 6.8526L11.8328 7.71951L11.8303 7.72314L11.7426 7.84831L11.3331 8.43255C11.1009 8.76392 11.3379 9.21951 11.7426 9.21951H12.456H12.6089H12.6133H15.0056V11.6301C12.7349 12.1632 10.7238 13.3698 9.19455 15.0277C9.15835 15.0669 9.12761 15.1078 9.10203 15.1498C8.23174 14.6799 7.29393 14.319 6.30688 14.0854V11.1245H9.34384H9.34827H9.50111H10.2146C10.6192 11.1245 10.8562 10.669 10.624 10.3376L10.2146 9.75334L10.1268 9.62817L10.1243 9.62455L8.91994 7.90609L8.78199 7.70924L8.06089 6.68033L7.979 6.56348C7.93256 6.49721 7.97997 6.40609 8.06089 6.40609H8.20358H8.68021H8.69475H8.94106H9.46002H9.56156C9.6064 6.40609 9.6491 6.40055 9.68929 6.39025C10.0257 6.30403 10.1863 5.88455 9.95089 5.59237L9.56156 5.10921L9.40701 4.91741L9.39789 4.90609ZM14.3259 4.22559L15.5217 2.74159L16.6266 4.11274C15.9174 4.57876 15.6411 5.58547 16.193 6.37293L17.1367 7.71951H13.6645L14.6083 6.37293C15.119 5.64414 14.9204 4.72756 14.3259 4.22559Z" fill="#31775A"/>
</svg>