<svg width="20" height="21" viewBox="0 0 20 21" fill="none" xmlns="http://www.w3.org/2000/svg">
<path fill-rule="evenodd" clip-rule="evenodd" d="M12.0836 16.4003C12.8638 14.8398 13.3897 12.5791 13.3897 10.0001C13.3897 6.8292 11.4138 3.92672 9.98775 2.27235C9.96073 2.241 9.93868 2.22804 9.9261 2.22228C9.91247 2.21603 9.90036 2.21387 9.88968 2.21387C9.879 2.21387 9.86688 2.21603 9.85326 2.22228C9.84068 2.22804 9.81862 2.241 9.7916 2.27235C8.36552 3.92672 6.38968 6.8292 6.38968 10.0001C6.38968 12.5791 6.91555 14.8398 7.69579 16.4003C8.52088 18.0505 9.38321 18.5001 9.88968 18.5001C10.3961 18.5001 11.2585 18.0505 12.0836 16.4003ZM14.8818 9.61972C15.4793 9.48416 16.0691 9.40271 16.6243 9.35788C17.0257 7.87809 16.9644 6.28719 16.791 5.0694C16.7861 5.03538 16.777 5.01939 16.7735 5.01391C16.7693 5.00743 16.7655 5.00429 16.7626 5.00247C16.7597 5.00065 16.7552 4.99854 16.7476 4.99753C16.7411 4.99668 16.7227 4.9953 16.6899 5.00552C15.9027 5.25076 14.9856 5.61345 14.1158 6.12639C13.9296 5.64895 13.7184 5.19036 13.4922 4.75404C14.4664 4.19742 15.4507 3.82046 16.2438 3.5734C17.1953 3.27699 18.1355 3.87129 18.276 4.8579C18.4434 6.03338 18.5388 7.67574 18.1785 9.31618C18.2215 9.31725 18.2639 9.31849 18.3058 9.31988C19.3018 9.35297 19.9942 10.2235 19.8024 11.2014C19.4524 12.985 18.5831 15.7463 16.4481 17.4444C14.2242 19.2133 11.7894 20.1443 10.0001 20.0673C8.21073 20.1443 5.776 19.2133 3.55202 17.4444C1.41707 15.7463 0.547725 12.985 0.19778 11.2014C0.00590993 10.2235 0.698314 9.35297 1.69434 9.31988C1.73623 9.31849 1.77869 9.31725 1.8217 9.31618C1.46141 7.67574 1.55675 6.03338 1.72416 4.8579C1.86468 3.87129 2.80491 3.27699 3.75639 3.5734C4.50313 3.80603 5.41944 4.15383 6.33725 4.65834C6.10866 5.09174 5.89443 5.54769 5.70448 6.02278C4.88915 5.56417 4.0434 5.23391 3.31025 5.00552C3.27744 4.9953 3.25908 4.99668 3.2526 4.99753C3.24495 4.99854 3.24048 5.00065 3.2376 5.00247C3.23472 5.00429 3.23089 5.00743 3.2267 5.01391C3.22315 5.01939 3.21402 5.03538 3.20918 5.0694C3.03574 6.28719 2.97443 7.87809 3.37584 9.35788C3.86318 9.39723 4.37715 9.46479 4.8996 9.5724C5.06387 6.01875 7.23168 2.94468 8.65546 1.29298C9.32105 0.520831 10.4583 0.52083 11.1239 1.29298C12.554 2.952 14.7347 6.04606 14.8818 9.61972ZM12.9902 17.8458C14.0031 16.2424 14.6983 13.871 14.8557 11.1713C16.041 10.8518 17.2651 10.7861 18.256 10.8191C18.2904 10.8202 18.3072 10.8275 18.3131 10.8305C18.32 10.8339 18.3235 10.8374 18.3256 10.8401C18.3277 10.8427 18.3303 10.847 18.3321 10.8545C18.3337 10.8608 18.3371 10.8789 18.3304 10.9126C17.9985 12.6044 17.2175 14.9158 15.5144 16.2705C14.6582 16.9515 13.7973 17.4729 12.9902 17.8458ZM6.69591 17.6945C5.98141 17.3361 5.23181 16.8639 4.48575 16.2705C2.78266 14.9158 2.00164 12.6044 1.66972 10.9126C1.6631 10.8789 1.66646 10.8608 1.66801 10.8545C1.66983 10.847 1.67242 10.8427 1.67454 10.8401C1.67666 10.8374 1.68019 10.8339 1.68708 10.8305C1.69292 10.8275 1.7098 10.8202 1.74414 10.8191C2.67275 10.7882 3.80609 10.8439 4.92035 11.1139C5.06662 13.7536 5.72662 16.0834 6.69591 17.6945Z" fill="#31775A"/>
</svg>