<svg width="20" height="22" viewBox="0 0 20 22" fill="none" xmlns="http://www.w3.org/2000/svg">
<path fill-rule="evenodd" clip-rule="evenodd" d="M5.57863 2.45656L6.62764 3.58059C6.67515 3.61526 6.72052 3.65479 6.76314 3.6993L8.28446 5.28786L9.54601 2.45655L5.57863 2.45656ZM3.69701 2.63886L5.0696 4.10961L0.66101 13.6924C0.488711 14.0669 0.563903 14.5088 0.850379 14.8052L2.32738 16.3337C2.34983 16.3656 2.37506 16.3962 2.4031 16.4251L6.4358 20.5832C6.76539 20.923 7.21861 21.1148 7.69203 21.1148H13.0191C13.3937 21.1148 13.7041 20.8403 13.7601 20.4814C13.8691 20.4123 13.9672 20.3202 14.0468 20.2052L19.212 12.747C19.6387 12.1309 19.2594 11.3052 18.5566 11.1909L17.3541 7.49968C17.1384 6.83775 16.3292 6.59323 15.7831 7.02498L10.8825 10.8991C10.7781 10.9816 10.6966 11.0761 10.6361 11.1776L7.42598 11.1776C7.38661 11.1776 7.34807 11.1797 7.3104 11.1839L9.13124 7.06746C9.16311 6.99541 9.18591 6.921 9.19991 6.84572C9.24929 6.78253 9.29214 6.71184 9.32685 6.63392L11.2296 2.36354C11.5243 1.70216 11.0402 0.95654 10.3162 0.956543L4.42809 0.956568C3.55373 0.956572 3.10045 1.99963 3.69701 2.63886ZM11.9417 19.6148L6.63652 12.7914C6.62848 12.7811 6.62069 12.7707 6.61314 12.7602L4.83562 16.7787L7.51257 19.5389C7.55965 19.5874 7.6244 19.6148 7.69203 19.6148H11.9417ZM2.1666 14.0087L6.17554 5.29464L7.60005 6.82103L3.71288 15.6089L2.1666 14.0087ZM8.44807 12.6776L13.2014 18.7913L17.4313 12.6836H11.5026C11.4636 12.6836 11.4254 12.6815 11.3882 12.6776L8.44807 12.6776ZM16.9747 11.1776L12.9489 11.1776L16.1502 8.64686L16.9747 11.1776Z" fill="#FFAD43"/>
</svg>