<svg width="19" height="19" viewBox="0 0 19 19" fill="none" xmlns="http://www.w3.org/2000/svg">
<path fill-rule="evenodd" clip-rule="evenodd" d="M14.6642 9.01752H15.814C16.9886 9.01752 17.9103 10.0249 17.8062 11.1949L17.186 18.1612C17.1515 18.5481 16.8274 18.8447 16.4389 18.8447C15.9985 18.8447 15.6528 18.4669 15.6919 18.0282L16.3121 11.0619C16.3381 10.7694 16.1077 10.5175 15.814 10.5175H2.18595C1.8923 10.5175 1.66188 10.7694 1.68792 11.0619L2.30809 18.0282C2.34714 18.4669 2.00151 18.8447 1.56104 18.8447C1.1726 18.8447 0.848439 18.5481 0.813995 18.1612L0.193826 11.1949C0.0896727 10.0249 1.01137 9.01752 2.18595 9.01752H3.23876C3.13863 8.30342 3.08789 7.63001 3.08789 7.03694C3.08789 6.64203 3.11039 6.2549 3.15499 5.87823H0.75C0.335786 5.87823 0 5.54245 0 5.12823C0 4.71402 0.335786 4.37823 0.75 4.37823H3.25C3.32221 4.37823 3.39204 4.38844 3.45812 4.40749C4.21036 1.92162 6.0923 0.17334 8.95149 0.17334C11.823 0.17334 13.7088 1.93666 14.4545 4.43954C14.5457 4.4001 14.6463 4.37823 14.752 4.37823H17.252C17.6662 4.37823 18.002 4.71402 18.002 5.12823C18.002 5.54245 17.6662 5.87823 17.252 5.87823H14.752C14.7506 5.87823 14.7493 5.87823 14.748 5.87822C14.7926 6.2549 14.8151 6.64202 14.8151 7.03694C14.8151 7.63001 14.7644 8.30342 14.6642 9.01752ZM13.1483 9.01752C13.2589 8.29452 13.3151 7.61691 13.3151 7.03694C13.3151 5.39817 12.8656 4.0373 12.1328 3.11977C11.4294 2.23917 10.3973 1.67334 8.95149 1.67334C7.50568 1.67334 6.47358 2.23917 5.77023 3.11977C5.03738 4.0373 4.58789 5.39817 4.58789 7.03694C4.58789 7.61691 4.64405 8.29452 4.75472 9.01752H13.1483ZM7.86475 5.85608C7.86475 6.13222 7.64089 6.35608 7.36475 6.35608C7.0886 6.35608 6.86475 6.13222 6.86475 5.85608C6.86475 5.57994 7.0886 5.35608 7.36475 5.35608C7.64089 5.35608 7.86475 5.57994 7.86475 5.85608ZM8.86475 5.85608C8.86475 6.68451 8.19317 7.35608 7.36475 7.35608C6.53632 7.35608 5.86475 6.68451 5.86475 5.85608C5.86475 5.02765 6.53632 4.35608 7.36475 4.35608C8.19317 4.35608 8.86475 5.02765 8.86475 5.85608ZM10.6372 6.35608C10.9133 6.35608 11.1372 6.13222 11.1372 5.85608C11.1372 5.57994 10.9133 5.35608 10.6372 5.35608C10.3611 5.35608 10.1372 5.57994 10.1372 5.85608C10.1372 6.13222 10.3611 6.35608 10.6372 6.35608ZM10.6372 7.35608C11.4656 7.35608 12.1372 6.68451 12.1372 5.85608C12.1372 5.02765 11.4656 4.35608 10.6372 4.35608C9.80878 4.35608 9.13721 5.02765 9.13721 5.85608C9.13721 6.68451 9.80878 7.35608 10.6372 7.35608ZM5.11377 14.5V13.5H8.11377V14.5H5.11377ZM3.61377 12.5C3.61377 12.2239 3.83763 12 4.11377 12H9.11377C9.38991 12 9.61377 12.2239 9.61377 12.5V15.5C9.61377 15.7761 9.38991 16 9.11377 16H4.11377C3.83763 16 3.61377 15.7761 3.61377 15.5V12.5ZM10.3862 12.9187C10.3862 12.5045 10.722 12.1687 11.1362 12.1687H13.6362C14.0504 12.1687 14.3862 12.5045 14.3862 12.9187C14.3862 13.3329 14.0504 13.6687 13.6362 13.6687H11.1362C10.722 13.6687 10.3862 13.3329 10.3862 12.9187ZM11.1362 14.2117C10.722 14.2117 10.3862 14.5475 10.3862 14.9617C10.3862 15.3759 10.722 15.7117 11.1362 15.7117H13.6362C14.0504 15.7117 14.3862 15.3759 14.3862 14.9617C14.3862 14.5475 14.0504 14.2117 13.6362 14.2117H11.1362Z" fill="#7A1D47"/>
</svg>