<svg width="67" height="65" viewBox="0 0 67 65" fill="none" xmlns="http://www.w3.org/2000/svg">
<path d="M34.2835 55.8304C33.8384 55.7296 33.4082 55.5901 32.9751 55.4625C32.8653 55.4299 32.7555 55.3973 32.6487 55.3646C32.2244 55.2341 31.8061 55.0976 31.3878 54.9522C31.3314 54.9315 31.272 54.9107 31.2157 54.8899C30.8418 54.7564 30.471 54.6199 30.1031 54.4775C29.9992 54.436 29.8954 54.3974 29.7916 54.3559C29.3881 54.1957 28.9875 54.0295 28.5899 53.8574C28.5098 53.8218 28.4297 53.7862 28.3496 53.7506C28.0084 53.5963 27.6732 53.4391 27.3379 53.2789C27.24 53.2314 27.1451 53.1869 27.0442 53.1394C26.7801 53.0119 26.519 52.8724 26.2609 52.7419C26.0859 52.6499 25.9108 52.5639 25.7387 52.4689C25.4213 52.2968 25.1097 52.1218 24.7982 51.9408C24.6944 51.8815 24.5876 51.8281 24.4808 51.7658C24.0684 51.5254 23.6589 51.2732 23.2584 51.0181C23.1486 50.9469 23.0388 50.8697 22.9291 50.7985C22.6353 50.6116 22.3446 50.4188 22.0597 50.22C21.9648 50.1577 21.8728 50.0865 21.7809 50.0242C21.5049 49.8284 21.229 49.6325 20.959 49.4308C20.8344 49.3388 20.7157 49.2468 20.5941 49.1549C20.3449 48.965 20.0956 48.7721 19.8524 48.5733C19.7426 48.4843 19.6298 48.3953 19.5201 48.3063C19.2085 48.0482 18.9 47.793 18.5944 47.526C18.5617 47.4993 18.5261 47.4726 18.4935 47.4429C18.1642 47.1551 17.8408 46.8585 17.5203 46.5588C17.4284 46.4698 17.3364 46.3837 17.2474 46.2977C17.01 46.0722 16.7786 45.8438 16.5502 45.6124C16.4582 45.5204 16.3662 45.4314 16.2772 45.3394C15.9865 45.0397 15.7016 44.7371 15.4198 44.4315C15.4049 44.4167 15.3901 44.4018 15.3782 44.387C15.0815 44.0636 14.7937 43.7313 14.5089 43.3961C14.4318 43.3041 14.3576 43.218 14.2805 43.1261C14.0698 42.8709 13.8592 42.6128 13.6544 42.3517C13.5773 42.2597 13.5002 42.1618 13.426 42.0669C13.1797 41.7464 12.9394 41.429 12.705 41.1056C6.1867 32.2167 3.84579 19.9544 9.05571 9.88464L4.43918 15.7414C-1.47687 24.2446 -0.741074 35.3082 3.77755 44.3425C3.88436 44.5591 3.99711 44.7727 4.10985 44.9863C4.18105 45.1198 4.24633 45.2593 4.3205 45.3928C4.36204 45.4729 4.40951 45.55 4.45105 45.6272C4.52819 45.7726 4.60829 45.909 4.68543 46.0485C4.82488 46.2947 4.97026 46.541 5.11564 46.7873C5.19574 46.9208 5.27882 47.0572 5.36189 47.1908C5.52507 47.4548 5.69122 47.7129 5.8633 47.974C5.93451 48.0838 6.00275 48.1965 6.07692 48.3034C6.31427 48.6534 6.55459 49.0035 6.80085 49.3507C6.80678 49.3596 6.81568 49.3685 6.82162 49.3774C6.86019 49.4308 6.90469 49.4872 6.94326 49.5435C7.15688 49.8402 7.3794 50.1339 7.60489 50.4217C7.68796 50.5285 7.77103 50.6353 7.85411 50.7392C8.05289 50.9914 8.25761 51.2406 8.46529 51.4898C8.54243 51.5818 8.61958 51.6767 8.69968 51.7687C8.97857 52.0951 9.26043 52.4214 9.55119 52.7419C9.55712 52.7478 9.56306 52.7537 9.56899 52.7567C9.58086 52.7715 9.59273 52.7804 9.60163 52.7953C9.88348 53.1038 10.1742 53.4065 10.465 53.7061C10.557 53.8011 10.649 53.893 10.7409 53.985C10.9664 54.2135 11.1978 54.4389 11.4322 54.6615C11.5272 54.7505 11.6191 54.8424 11.7141 54.9315C12.0256 55.2252 12.3401 55.513 12.6605 55.7948C12.6665 55.7978 12.6694 55.8037 12.6754 55.8067C12.7288 55.8542 12.7881 55.9016 12.8415 55.9462C13.1234 56.1894 13.4112 56.4327 13.7019 56.673L14.0579 56.9579C14.2953 57.1478 14.5327 57.3347 14.773 57.5186C14.9006 57.6165 15.0281 57.7144 15.1557 57.8094C15.4198 58.0052 15.6898 58.198 15.9597 58.385C16.0577 58.4562 16.1526 58.5244 16.2535 58.5926C16.2802 58.6105 16.3069 58.6312 16.3336 58.649C16.5887 58.827 16.8528 58.9932 17.1139 59.1653C17.2266 59.2394 17.3364 59.3166 17.4521 59.3907C17.8556 59.6459 18.2621 59.8981 18.6745 60.1414C18.7872 60.2067 18.9 60.269 19.0127 60.3313C19.3153 60.5063 19.6209 60.6784 19.9295 60.8475C20.0956 60.9365 20.2677 61.0226 20.4368 61.1086C20.6534 61.2213 20.873 61.34 21.0925 61.4498C21.143 61.4765 21.1964 61.5002 21.2438 61.524C21.3328 61.5655 21.4219 61.607 21.5138 61.6545C21.858 61.8177 22.2051 61.9809 22.5552 62.1381C22.6294 62.1708 22.7006 62.2034 22.7748 62.236C23.1753 62.4111 23.5788 62.5802 23.9882 62.7404C24.0862 62.7819 24.1841 62.8176 24.2849 62.8561C24.6617 63.0015 25.0445 63.1469 25.4302 63.2804C25.4776 63.2982 25.5251 63.316 25.5756 63.3308C25.9969 63.4792 26.4241 63.6156 26.8513 63.7492C26.9522 63.7788 27.056 63.8115 27.1599 63.8411C27.596 63.9717 28.0292 64.1289 28.4802 64.212C57.0902 69.4308 65.4006 47.0187 65.4006 47.0187C58.4224 56.1123 46.0325 58.5096 34.2924 55.8423L34.2835 55.8304ZM23.9764 32.641C24.6172 33.5607 25.3293 34.6525 26.1778 35.3913C26.4864 35.7295 26.8098 36.0618 27.1391 36.3882C27.2222 36.4742 27.3082 36.5543 27.3913 36.6374C27.7117 36.9489 28.0351 37.2516 28.3704 37.5482C28.3852 37.5571 28.3971 37.572 28.4119 37.5838C28.4149 37.5868 28.4179 37.5898 28.4208 37.5928C28.7917 37.9191 29.1774 38.2336 29.5661 38.5392C29.6521 38.6045 29.7381 38.6757 29.8272 38.7439C30.2188 39.0436 30.6164 39.3373 31.0258 39.6192L31.0614 39.6459C31.2424 39.7705 31.4263 39.8862 31.6073 40.0078C31.6963 40.0642 31.7794 40.1265 31.8684 40.1799C32.1592 40.3668 32.4558 40.5508 32.7555 40.7229C32.797 40.7496 32.8386 40.7703 32.8801 40.7941C33.1382 40.9454 33.4023 41.0908 33.6664 41.2332C33.7583 41.2866 33.8533 41.3311 33.9452 41.3785C34.1262 41.4735 34.3102 41.5684 34.4941 41.6634C34.5208 41.6752 34.5505 41.6901 34.5772 41.699C34.954 41.8859 35.3338 42.0639 35.7224 42.233C35.8055 42.2686 35.8915 42.3013 35.9746 42.3369C36.2862 42.4704 36.5977 42.598 36.9122 42.7196C37.0457 42.77 37.1822 42.8175 37.3127 42.8679C37.6005 42.9748 37.8853 43.0727 38.1761 43.1676C38.3066 43.2091 38.4342 43.2507 38.5647 43.2922C38.9771 43.4198 39.3836 43.583 39.8109 43.6542C61.8996 47.3124 66.9998 30.306 66.9998 30.306C62.404 36.9282 53.5002 40.085 44.0002 37.6195C43.5788 37.5067 43.1635 37.388 42.7481 37.2575C42.6205 37.2189 42.4989 37.1774 42.3713 37.1358C42.0776 37.0409 41.7868 36.94 41.4961 36.8332C41.3626 36.7828 41.232 36.7353 41.1015 36.6849C40.784 36.5632 40.4695 36.4356 40.161 36.3051C40.0749 36.2665 39.9889 36.2339 39.9058 36.1983C39.5171 36.0292 39.1314 35.8512 38.7517 35.6642C38.5559 35.5693 38.366 35.4684 38.1731 35.3705C38.0633 35.3142 37.9506 35.2578 37.8408 35.1984C37.5946 35.0649 37.3513 34.9255 37.111 34.786C37.0546 34.7534 36.9923 34.7208 36.9359 34.6881C36.6362 34.5131 36.3425 34.3321 36.0488 34.1482C35.9598 34.0918 35.8708 34.0295 35.7818 33.9701C35.5889 33.8455 35.3961 33.7179 35.2092 33.5904C34.8027 33.3085 34.4051 33.0148 34.0165 32.7181C33.9274 32.6469 33.8355 32.5786 33.7465 32.5074C29.5898 29.2231 26.2935 24.7371 24.724 19.6488C23.0804 14.3736 23.4364 8.44865 26.2817 3.64223L22.7866 8.57623C18.5083 14.7326 18.7398 22.9747 22.0775 29.4871C22.6383 30.5789 23.2673 31.6381 23.9704 32.6469L23.9764 32.641ZM47.2608 25.0249C47.4418 25.0931 47.6257 25.1524 47.8097 25.2147C47.8898 25.2385 47.9699 25.2681 48.053 25.2919C48.3141 25.372 48.5722 25.4699 48.8392 25.5174C61.0362 27.8731 64.3444 19.2572 65.2255 17.9903C62.3268 22.1618 57.4581 23.1646 51.4827 21.7138C51.011 21.5981 50.4918 21.4289 50.0349 21.2658C49.4504 21.0581 48.8778 20.8207 48.317 20.5537C47.2549 20.0434 46.2432 19.4263 45.3056 18.7172C39.9592 14.6614 36.6362 6.92068 40.1254 0.615967L38.2354 3.21796C35.7135 6.92958 35.4673 11.5402 37.2148 15.6375C39.0602 19.99 42.8431 23.4019 47.2549 25.0219L47.2608 25.0249Z" fill="#F07167"/>
</svg>
