<svg width="140" height="329" viewBox="0 0 113 329" fill="none" xmlns="http://www.w3.org/2000/svg">
<path d="M35.1614 129.292L41.7419 136.016C46.5868 140.966 54.53 141.051 59.5046 136.206C64.4547 131.361 64.5401 123.418 59.6954 118.444L45.4258 103.864C42.7262 101.106 42.7738 96.6712 45.5324 93.9472C48.2907 91.2475 52.7253 91.2952 55.4493 94.0538L75.1423 114.175C78.6374 117.746 80.5838 122.567 80.5301 127.562L80.128 164.988C80.0534 171.932 85.6217 177.597 92.5416 177.671C99.4858 177.746 105.15 172.178 105.225 165.258L105.662 124.567C105.765 114.991 102.063 105.764 95.3617 98.9177L46.5992 49.0959C39.8983 42.2494 36.1959 33.0227 36.2988 23.4469L36.5467 0.37238L1.89852 6.98879e-05L1.04656 79.2867C0.94366 88.8624 4.64602 98.0892 11.3469 104.936L35.1617 129.268L35.1614 129.292Z" fill="#BAC738"/>
<path d="M77.2197 198.728L70.6599 191.985C65.8302 187.02 57.8873 186.91 52.8979 191.739C47.9329 196.569 47.8232 204.512 52.6526 209.501L66.8774 224.125C69.5685 226.891 69.5073 231.326 66.7404 234.041C63.9738 236.732 59.5394 236.671 56.8238 233.904L37.1927 213.723C33.7086 210.141 31.7769 205.314 31.8459 200.319L32.3629 162.895C32.4588 155.951 26.9079 150.269 19.9882 150.173C13.0442 150.077 7.36256 155.628 7.26698 162.548L6.70493 203.237C6.57267 212.813 10.2467 222.051 16.9266 228.918L65.536 278.889C72.2159 285.756 75.89 294.994 75.7577 304.569L75.439 327.643L110.086 328.122L111.181 248.838C111.313 239.263 107.639 230.025 100.959 223.158L77.2194 198.753L77.2197 198.728Z" fill="#BAC738"/>
</svg>
